<?xml version="1.0" ?>
<svg height="48px" version="1.1" viewBox="0 0 48 48" width="48px" xmlns="http://www.w3.org/2000/svg" xmlns:xlink="http://www.w3.org/1999/xlink">
<title/>
<g fill="#FFFFFF" fill-rule="evenodd" id="arrow-cursor" stroke="none" stroke-width="1">
    <path d="M15.5327561,29.3220023 L15.5099541,29.3993588 C15.4393958,29.7340104 15.7285288,30.0521421 16.0821995,29.993197 L21.5,29.09 L21.5,39.5 C21.5,39.7761424 21.7238576,40 22,40 L26,40 L26.0898756,39.9919443 C26.3231248,39.9496084 26.5,39.7454599 26.5,39.5 L26.5,29.09 L31.9178005,29.993197 C32.2986766,30.0566763 32.6047043,29.6828359 32.4672439,29.3220023 L24.4672439,8.32200234 C24.3036871,7.89266589 23.6963129,7.89266589 23.5327561,8.32200234 L15.5327561,29.3220023 Z M24,9.904 L31.222,28.863 L26.0821995,28.006803 L25.9918398,27.9999274 C25.7247212,28.0037525 25.5,28.2219273 25.5,28.5 L25.5,39 L22.5,39 L22.5,28.5 L22.4919271,28.4097394 C22.4442399,28.1468841 22.1920898,27.9610882 21.9178005,28.006803 L16.777,28.863 L24,9.904 Z" fill-rule="nonzero" id="Path" transform="translate(24.000000, 24.000000) rotate(-20.000000) translate(-24.000000, -24.000000) "/>
    
</g>
</svg>