<?xml version="1.0" ?><svg enable-background="new 0 0 40 40" id="Слой_1" version="1.1" viewBox="0 0 40 40" xml:space="preserve" xmlns="http://www.w3.org/2000/svg" xmlns:xlink="http://www.w3.org/1999/xlink">
<g>
<path d="M16.3,21.3" fill="#ffffff"/>
</g>
<g>
<path d="M31.6,17.7v8.3c0,1.9-0.7,3.7-2,5.1V32c0,1.6-1.3,3-3,3h-8.4c-1.6,0-3-1.3-3-3c0-0.6,0.5-1,1-1s1,0.4,1,1c0,0.5,0.4,1,1,1   h8.4c0.5,0,1-0.4,1-1v-1.2c0-0.1,0-0.2,0-0.3c0-0.1,0-0.1,0-0.1c0-0.1,0.1-0.2,0.2-0.3c1.1-1.1,1.7-2.5,1.7-4v-8.3   c0-0.3-0.1-0.5-0.3-0.7c-0.1-0.1-0.5-0.4-1-0.3c-0.4,0.1-0.8,0.6-0.8,1.1v2.4c0,0.6-0.5,1-1,1s-1-0.4-1-1v-5.5   c0-0.3-0.1-0.5-0.3-0.7s-0.4-0.3-0.7-0.3c-0.5,0-1,0.5-1,1v5.5c0,0.6-0.5,1-1,1s-1-0.4-1-1v-8.5c0-0.3-0.1-0.5-0.3-0.7   s-0.4-0.3-0.7-0.3c-0.5,0-1,0.5-1,1v8.5c0,0.6-0.5,1-1,1s-1-0.4-1-1V7.7c0-0.3-0.1-0.5-0.3-0.7c-0.1-0.1-0.5-0.4-1-0.3   c-0.4,0.1-0.8,0.6-0.8,1.1v12.2c0,0.4-0.2,0.8-0.6,0.9c-0.4,0.2-0.8,0.1-1.1-0.2l-2.6-2.6c-0.6-0.6-1.6-0.6-2.2,0.1   c-0.5,0.6-0.4,1.5,0.2,2.1l7,7c0.4,0.4,0.4,1,0,1.4c-0.2,0.2-0.5,0.3-0.7,0.3c-0.3,0-0.5-0.1-0.7-0.3l-7-7.1   c-1.3-1.3-1.5-3.5-0.3-4.8c0.7-0.8,1.7-1.3,2.7-1.3c0.9,0,1.8,0.4,2.5,1l0.9,0.9V7.9c0-1.4,0.9-2.7,2.3-3c1-0.3,2.1,0,2.8,0.8   c0.6,0.6,0.9,1.3,0.9,2.1v1.2c0.3-0.1,0.7-0.2,1-0.2c0.8,0,1.5,0.3,2.1,0.9s0.9,1.3,0.9,2.1v0.2c0.3-0.1,0.7-0.2,1-0.2   c0.8,0,1.5,0.3,2.1,0.9s0.9,1.3,0.9,2.1v0.2c0.1,0,0.2-0.1,0.3-0.1c1-0.3,2.1,0,2.8,0.8C31.3,16.2,31.6,17,31.6,17.7z" fill="#ffffff"/>
</g>
</svg>