<?xml version="1.0" ?>
<svg height="20" version="1.1" viewBox="0 0 20 20" width="20" xmlns="http://www.w3.org/2000/svg">
    <g id="layer1">
        <path d="M 0 2 L 0 16 L 8 16 L 8 17 L 3 17 L 3 18 L 17 18 L 17 17 L 12 17 L 12 16 L 20 16 L 20 2 L 0 2 z M 1 3 L 19 3 L 19 15 L 1 15 L 1 3 z M 4.6464844 6.6464844 L 2.2929688 9 L 4.6464844 11.353516 L 5.3535156 10.646484 L 3.7070312 9 L 5.3535156 7.3535156 L 4.6464844 6.6464844 z M 15.353516 6.6464844 L 14.646484 7.3535156 L 16.292969 9 L 14.646484 10.646484 L 15.353516 11.353516 L 17.707031 9 L 15.353516 6.6464844 z M 9 16 L 11 16 L 11 17 L 9 17 L 9 16 z " style="fill:#FFFFFF; fill-opacity:1; stroke:none; stroke-width:0px;"/>
    </g>
</svg>